<?xml version="1.0" encoding="utf-8"?>
<!-- Generator: Adobe Illustrator 24.0.0, SVG Export Plug-In . SVG Version: 6.00 Build 0)  -->
<svg version="1.1" id="Layer_1" xmlns="http://www.w3.org/2000/svg" xmlns:xlink="http://www.w3.org/1999/xlink" x="0px" y="0px"
	 viewBox="0 0 271.87 147.64" style="enable-background:new 0 0 271.87 147.64;" xml:space="preserve">
<style type="text/css">
	.st0{fill:#4FAB03;}
	.st1{fill-rule:evenodd;clip-rule:evenodd;fill:#4FAB03;}
	.st2{fill-rule:evenodd;clip-rule:evenodd;fill:#696A62;}
</style>
<path class="st0" d="M253.74,144.73h-3.27v-17.59h4.51l4.7,13.32l4.67-13.32h4.51v17.59h-3.24v-13.19l-4.56,13.19h-2.77l-4.54-13.19
	V144.73z M242.34,145.08c-1.58,0-2.91-0.51-4-1.53c-1.08-1.02-1.66-2.3-1.73-3.85h3.4c0.02,0.7,0.24,1.27,0.67,1.7
	c0.43,0.43,1.01,0.65,1.73,0.65c0.7,0,1.27-0.21,1.71-0.62c0.44-0.41,0.66-0.95,0.66-1.6c0-1.14-0.79-2-2.37-2.59
	c-1.27-0.46-2.11-0.79-2.52-1c-0.41-0.21-0.8-0.5-1.17-0.87c-0.98-0.97-1.48-2.15-1.48-3.56c0-1.37,0.51-2.55,1.52-3.53
	c1.01-0.98,2.22-1.48,3.63-1.48c1.44,0,2.65,0.47,3.63,1.42c0.98,0.95,1.51,2.15,1.6,3.59h-3.38c-0.11-1.32-0.75-1.98-1.93-1.98
	c-0.55,0-0.98,0.16-1.32,0.49c-0.33,0.33-0.5,0.76-0.5,1.31c0,0.58,0.19,1.03,0.58,1.35c0.39,0.32,1.18,0.69,2.37,1.11
	c1.37,0.48,2.37,1.01,3.01,1.61c1.05,0.98,1.58,2.22,1.58,3.69c0,1.58-0.55,2.93-1.66,4.04
	C245.27,144.52,243.92,145.08,242.34,145.08z M234.53,144.73h-3.27v-17.59h3.27V144.73z M220.32,130.17v5.38h2.08
	c0.97,0,1.73-0.24,2.29-0.73c0.56-0.48,0.84-1.15,0.84-2c0-0.81-0.29-1.46-0.86-1.93c-0.57-0.48-1.33-0.72-2.28-0.72H220.32z
	 M220.32,144.73h-3.27v-17.59h5.38c2.3,0,3.99,0.64,5.06,1.93c0.86,1.04,1.29,2.22,1.29,3.53c0,1.34-0.37,2.51-1.11,3.53
	c-0.74,1.02-1.9,1.72-3.48,2.11l4.75,6.49h-3.93l-4.7-6.73V144.73z M201.43,138.33v-11.18h3.24v11.18c0,2.48,1.01,3.72,3.03,3.72
	c2.02,0,3.03-1.24,3.03-3.72v-11.18h3.24v11.18c0,2.23-0.6,3.92-1.81,5.05c-1.2,1.13-2.69,1.7-4.44,1.7c-1.23,0-2.37-0.31-3.42-0.92
	c-1.05-0.62-1.81-1.42-2.28-2.4C201.63,140.89,201.43,139.75,201.43,138.33z M189.98,129.83c-1.64,0-3.03,0.6-4.19,1.79
	c-1.16,1.2-1.74,2.64-1.74,4.33c0,1.67,0.58,3.1,1.74,4.3c1.16,1.2,2.56,1.79,4.19,1.79c1.64,0,3.03-0.59,4.19-1.78
	c1.16-1.19,1.74-2.62,1.74-4.31c0-1.69-0.58-3.13-1.74-4.33C193.02,130.43,191.62,129.83,189.98,129.83z M189.98,145.08
	c-2.55,0-4.72-0.89-6.51-2.68c-1.79-1.78-2.69-3.93-2.69-6.45s0.9-4.67,2.69-6.46c1.79-1.79,3.97-2.69,6.51-2.69
	c2.53,0,4.69,0.89,6.49,2.68c1.79,1.78,2.69,3.94,2.69,6.48c0,2.51-0.9,4.66-2.69,6.45C194.68,144.19,192.52,145.08,189.98,145.08z
	 M176.82,144.73h-3.24v-14.56h-3.27v-3.03h9.76v3.03h-3.24V144.73z M156.2,140.08l-2.73-3.02c-1.42,0.67-2.12,1.55-2.12,2.62
	c0,0.67,0.23,1.24,0.68,1.68c0.46,0.45,1.03,0.68,1.73,0.68C154.65,142.04,155.46,141.39,156.2,140.08z M153,131.26
	c0,0.55,0.4,1.22,1.21,2.03c0.69-0.35,1.15-0.67,1.4-0.95c0.25-0.28,0.37-0.63,0.37-1.05c0-0.46-0.14-0.82-0.41-1.09
	c-0.27-0.27-0.64-0.41-1.09-0.41c-0.42,0-0.77,0.14-1.06,0.42C153.14,130.48,153,130.83,153,131.26z M157.83,137.3l1.71-2.93h3.51
	l-3.03,5.3l3.11,3.38l-2.32,2.03l-2.4-2.64c-1.28,1.76-2.78,2.64-4.48,2.64c-1.6,0-2.96-0.54-4.09-1.62
	c-1.13-1.08-1.69-2.4-1.69-3.94c0-1.48,0.55-2.73,1.64-3.77c0.37-0.35,0.92-0.75,1.66-1.19c-0.55-0.65-0.91-1.14-1.08-1.48
	c-0.26-0.49-0.4-1.07-0.4-1.74c0-1.3,0.43-2.38,1.28-3.24c0.85-0.86,1.92-1.29,3.2-1.29c1.27,0,2.33,0.42,3.2,1.25
	c0.87,0.84,1.31,1.87,1.31,3.1c0,1.85-0.92,3.29-2.77,4.33L157.83,137.3z M140.21,144.73h-8.63v-17.59h3.27v14.56h5.35V144.73z
	 M128.92,144.73h-9.47v-17.59h9.47v3.03h-6.2v4.33h5.93v3.03h-5.93v4.17h6.2V144.73z M111.2,144.73h-2.66l-6.86-17.59h3.43
	l4.75,13.37l4.75-13.37h3.4L111.2,144.73z M94.61,131.76l-1.9,5.41h3.77L94.61,131.76z M89.6,144.73h-3.59l7.31-17.59h2.56
	l7.39,17.59h-3.61l-1.87-4.54h-6.22L89.6,144.73z M76.2,130.17v5.38h2.08c0.97,0,1.73-0.24,2.29-0.73c0.56-0.48,0.84-1.15,0.84-2
	c0-0.81-0.29-1.46-0.86-1.93c-0.57-0.48-1.33-0.72-2.28-0.72H76.2z M76.2,144.73h-3.27v-17.59h5.38c2.3,0,3.99,0.64,5.06,1.93
	c0.86,1.04,1.29,2.22,1.29,3.53c0,1.34-0.37,2.51-1.11,3.53c-0.74,1.02-1.9,1.72-3.48,2.11l4.75,6.49h-3.93l-4.7-6.73V144.73z
	 M67.81,144.73h-3.24v-14.56h-3.27v-3.03h9.76v3.03h-3.24V144.73z"/>
<path class="st1" d="M106.14,45.79c-0.1,0.54,0.36,1.01,0.18,0.18C106.32,45.95,106.33,44.79,106.14,45.79 M105.85,44.93
	c-0.1,0.54,0.36,1.02,0.18,0.18C106.03,45.09,106.04,43.94,105.85,44.93z M105.57,44.36c0,0.73,0.45,0.05,0.17,0
	C105.74,44.36,105.57,43.56,105.57,44.36z M105.28,43.5c-0.1,0.54,0.36,1.01,0.18,0.18C105.46,43.67,105.47,42.51,105.28,43.5z
	 M105,42.65c-0.1,0.54,0.36,1.01,0.18,0.18C105.17,42.81,105.19,41.65,105,42.65z M104.71,41.79c-0.1,0.54,0.36,1.01,0.18,0.18
	C104.89,41.95,104.9,40.8,104.71,41.79z M104.43,41.22c0,0.73,0.45,0.05,0.17,0C104.59,41.22,104.43,40.42,104.43,41.22z
	 M104.14,40.37c-0.1,0.54,0.36,1.01,0.18,0.18C104.32,40.53,104.33,39.37,104.14,40.37z M103.86,39.79c0,0.73,0.45,0.05,0.17,0
	C104.02,39.79,103.86,39,103.86,39.79z M58.08,20.96l-0.46,0.2l-0.33,0.93c1.02,0.67,1.98,1.43,3.02,2.18
	c1.01,0.73,2.44,1.51,3.02,2.44l0.49,0.25c1.83,0.83,8.25,5.71,10.27,7.22c1.57,1.17,1.95,1.43,2.93,3.13l0.25,0.22
	c1.11,0.69,3.9,4.97,4.6,6.28l-10.63,8.78c-1.83,1.49-3.54,2.84-5.44,4.27c-2.56,1.92-2.02,1.88-4.87,0.47l-1.12-0.6
	c-0.35-0.23-0.27-0.18-0.49-0.38l-0.51-0.27c-1.44-0.31-3.03-1.44-4.6-1.39c-2.45,0.09-3.59,1.48-4.3,1.96
	c0.25,0.36,0.34,0.53,0.57,0.91l0.57,0.51c0.98,0.26,6.26,4.55,6.85,5.42c-0.52,1.93-2.95,3.11-3.42,5.14
	c1.47-0.03,2.14-0.57,3.42-0.84l0.57-0.26c0.65-0.36,1.1-0.54,2-0.61c0.23,1,0.58,1.35,0.97,2.46c0.87,2.49,1.63,5.87,2.74,7.53
	c5.65-2.99,2.85-8.02,2.85-13.7c1.3-0.35,6.09-3.87,7.12-4.3c1.66-0.69,8.62-0.27,11.15-0.27l-9.99-0.29
	c1.37-1.19,6.94-4.37,8.66-5.37c1.27-0.74,1.33-1.21,1.33,2.23l0.29-3.14l1.71-0.87c0.99,1.47,3.91,5.23,4.29,6.86l0.29,0.29
	c3.19,4.77,5.91,22.08,7.71,23.4c4.51-1.2,2.93-9.01,2.41-12.68c-0.49-3.47-1.55-11.95-1.55-15c1.22-0.28,5.05-2.88,5.99-4.28
	c-0.85-1.61-1.35-2.71-2.85-3.71c-1.09,0.29-3.01,1.91-4,2.57c0-1.42-0.29-1.78-0.3-3.42c-0.02-4.34,0.53-4.14,2.18-5.26
	c1.62-1.09,1.63-1.26,2.4-0.45c0.03-1.27,0.02-1.2,0.84-1.72c0.56-0.36,1.14-0.63,1.78-1.07c1.22-0.82,1.81-1.73,3.65-1.77
	c0.22-0.71-0.96,0.54-0.2-0.58l3.62-2.84c0.25-0.94,1.01-1.5,1.52-2.47c2.21-4.13,1-4.46-2.35-4.06c-1.11,0.13-2.39,0.6-3.58,0.83
	l-0.16,0.15c-1.62,0.74-3.02,1.87-4.4,2.87c-0.8,0.58-1.21,0.83-2,1.43c-0.92,0.7-1.3,1.04-2.3,1.55l-0.14,0.14
	c-1.14,1.15-3.7,3.4-5.4,3.31c-0.83-0.05-2.53-0.67-3.33-0.99c-1.1-0.44-2.11-0.74-2.69-1.6c1.26-0.34,3.05-1.87,3.71-2.85
	c-0.48-0.91-0.55-1.13-1.18-1.96c-0.5-0.67-0.98-1.13-1.39-1.75c-1.24,0.29-2.51,1.25-3.47,1.95c-0.97,0.71-2.27,2.03-3.38,2.33
	l-0.86-0.68l-0.57-0.23c-3.04-1.23-7.68-4-11.32-5.75c-0.77-0.37-1.23-0.5-2-0.85c-0.28-0.13-0.76-0.36-0.95-0.47
	c-0.06-0.03-0.13-0.07-0.18-0.11l-0.67-0.56l-1.63-0.77c-1.52-0.11-1.66-0.75-3.24-0.87C59.99,19.98,59.13,20.51,58.08,20.96z"/>
<path class="st1" d="M71.32,3.55h2.57c-0.44,0.6-0.81,0.73-1.43,1.14C71.8,3.78,71.99,4.46,71.32,3.55 M69.32,4.12V3.84
	c1.4,0,1.2-0.13,2,0.57C70.48,4.21,70.45,4.12,69.32,4.12z M76.17,4.12c-1.35,0-1.28,0.05-2.28,0.29c0.31-0.27,0.48-0.48,1.09-0.64
	C75.68,3.59,75.56,3.59,76.17,4.12z M77.89,4.12h1.43v0.29h-1.43V4.12z M81.6,4.12l0.09,0.09C81.68,4.2,81.57,4.15,81.6,4.12z
	 M61.33,4.69h1.71v0.29h-1.71V4.69z M80.45,4.69l0.09,0.09C80.53,4.77,80.43,4.72,80.45,4.69z M58.77,4.98h1.71v0.29h-1.71V4.98z
	 M57.05,5.26h1.43v0.29h-1.43V5.26z M82.45,5.26l0.08,0.09C82.53,5.34,82.42,5.29,82.45,5.26z M56.77,5.83h-1.14
	c0.53-0.34-0.64-0.32,0.57-0.24C56.81,5.64,56.45,5.62,56.77,5.83z M59.62,5.55c0.33-0.33,1.61,0.48,0.36,0.12
	C59.94,5.65,59.13,6.04,59.62,5.55z M67.04,5.55l0.09,0.08C67.12,5.63,67.01,5.58,67.04,5.55z M70.18,5.83
	c0.77-0.06,0.78-0.13,1.43-0.29C70.97,6.5,70.91,6.84,70.18,5.83z M73.61,5.55c1.04,0.24,0.91,0.16,1.43,0.86
	C73.9,6.31,74.1,6.29,73.61,5.55z M77.32,5.55c0.31-0.31,1.56,0.43,0.47,0.15C77.52,5.63,76.81,6.05,77.32,5.55z M83.88,5.55
	c0.16,0,0.47-0.01,0.55,0.02c0.52,0.15,0.31,0.08,0.59,0.27L83.88,5.55z M55.34,6.12H54.2c0.53-0.34-0.64-0.32,0.57-0.24
	C55.38,5.93,55.02,5.91,55.34,6.12z M57.91,5.83c0.18-0.18,1.54,0.34,0.56,0.2c0,0,0.76,0.27-0.17-0.05
	C58.26,5.97,57.43,6.31,57.91,5.83z M61.62,5.83c0.3-0.3,1.08,0.45,0.32,0.15C61.93,5.98,61.14,6.31,61.62,5.83z M68.18,5.83
	c0.31-0.31,1.56,0.43,0.47,0.15C68.39,5.91,67.68,6.34,68.18,5.83z M75.89,5.83c0.31-0.31,1.56,0.43,0.47,0.15
	C76.09,5.91,75.38,6.34,75.89,5.83z M53.34,6.12c0.3-0.3,1.08,0.45,0.32,0.15C53.65,6.26,52.86,6.6,53.34,6.12z M59.91,6.12
	l1.14,0.29c-0.16,0-0.47,0.01-0.55-0.02C59.99,6.24,60.18,6.29,59.91,6.12z M54.48,10.4c-1.06,0-1.37-0.47-2.57-0.57V9.26
	c2.06-0.48,4.09-1.31,6.39-1.89c2.15-0.54,4.56-1.25,7.03-1.25c-0.82,0.57-1.69,0.58-2.74,0.97L54.48,10.4z M72.75,5.26
	c0.45,0.68,0.35,0.3,0.57,1.14h-1.43C72.16,5.41,72,5.76,72.75,5.26z M79.6,6.12c3.22,0,9,1.8,12.46,2.95l1.52,0.76
	c-5.36,1.25-1.79,1.05-6.95-1.02c-1.35-0.54-2.09-0.85-3.48-1.38L79.6,6.12z M81.31,4.98V4.69c4.36,0,6.96,1.13,9.99,1.43
	c-0.05,0.03-0.15,0-0.18,0.07c-0.03,0.07-0.15,0.05-0.18,0.05l-4.2-0.69C85.05,5.26,83.26,4.98,81.31,4.98z M52.2,6.4
	c0.3-0.3,1.08,0.45,0.32,0.15C52.51,6.55,51.72,6.88,52.2,6.4z M50.2,8.97c0.84-1.15,8.17-2.57,9.42-2.57L52.48,8.7
	C51.3,9.19,51.44,9.26,50.2,8.97z M59.91,11.26c-1.7,0-2.9-0.26-4.28-0.57l1.24-0.77C59.76,8.6,64.88,6.4,67.9,6.4L59.91,11.26z
	 M77.32,6.4c2.83,0,6.87,1.92,9.58,3.02c1.11,0.45,2.09,0.72,2.7,1.55c-4.73,0-2.87,1.87-6.68-1.02c-1.96-1.49-2.54-1.62-4.22-2.63
	c-0.17-0.1-0.5-0.3-0.7-0.44C77.44,6.52,77.74,6.78,77.32,6.4z M83.59,6.4V6.12c3.07,0,10.39,2.48,11.42,2.57
	c-0.74,1.11-0.79,0.78-2.24,0.26C90.58,8.17,85.75,6.4,83.59,6.4z M87.02,6.4V6.12c1.31,0,7.44,1.14,8.28,2.28
	C93.05,7.88,89.48,6.4,87.02,6.4z M91.58,6.4c0.33-0.33,1.61,0.48,0.36,0.12C91.91,6.51,91.09,6.9,91.58,6.4z M67.9,12.11
	c-2.07,0-4.85-0.57-6.85-0.57c0.85-1.27,4.95-3.61,6.66-4.49c1.6-0.82,0.88-0.36,3.04-0.36c-0.49,0.92-0.95,1.6-1.43,2.57
	C68.85,10.2,68.39,11.18,67.9,12.11z M92.73,6.69c0.3-0.3,1.08,0.45,0.32,0.15C93.04,6.83,92.25,7.17,92.73,6.69z M49.92,8.12
	c0.49-0.66-0.1-0.44,2.64-1.07c1.13-0.26,2.26-0.62,3.35-0.64L49.92,8.12z M74.46,6.69c2.48,0,2.71,0.15,5.37,1.76l4.33,3.09
	c-1.57,0.37-5.19,0.57-7.13,0.57c-0.25-1.07-0.74-1.77-1.24-2.76c-0.26-0.52-0.41-0.82-0.68-1.32c-0.08-0.14-0.3-0.53-0.31-0.55
	L74.46,6.69z M35.65,14.68c0.25-0.95,0.16-0.75,1.03-1.25c0.7-0.4,0.97-0.5,1.66-0.91c2.04-1.21,9.03-4.24,11.01-4.4
	C48.68,9.03,48.03,8.81,46,9.62C41.47,11.43,39.75,12.51,35.65,14.68z M35.65,15.54c1.16-1.59,12.22-6.56,13.98-6.56
	c0.52,0,0.03-0.02,0.57,0.29c-0.46,0.62-0.79,0.63-1.62,0.94l-5.8,2.76C38.57,15.05,37.07,17.48,35.65,15.54z M37.36,16.96
	c1.31-1.79,12.74-7.13,13.13-7.13c1.21,0,2.03,0.74,3.42,0.86L43.32,18.1C41.6,19.37,40.66,17.73,37.36,16.96z M106.43,13.54
	c0.5,0.68,1.04,0.92,2,1.14C107.92,14,107.38,13.76,106.43,13.54z M102.43,13.54c0.51,0.7,1.03,0.9,2,1.14
	C104.07,13.97,103.13,13.7,102.43,13.54z M104.43,14.68c0.51,0.7,0.39,0.61,1.43,0.86C105.34,14.84,105.47,14.92,104.43,14.68z
	 M102.43,13.54c-0.68-0.93-2.44-1.5-3.61-2.1c-0.9-0.45-3.12-1.53-4.09-1.62c0.95-1.41,2.75-0.31,5.8,1.06
	c1.05,0.47,1.88,0.82,2.95,1.32c1.08,0.5,1.77,1.06,2.95,1.33c-0.91-1.24-9.54-4.74-10.84-4.85V8.12c3.46,0.81,9.45,3.6,12.58,5.4
	c0.93,0.53,1.1,0.33,1.4,1.45l-1.13-0.32c0.66,0.94,0.46,0.27,1.13,1.18l-1.21,1.08c-0.76-0.49-1.42-1.11-2.5-1.36
	c0.67,0.91,1.33,0.8,2,1.71c-1.06,0.25-2.97,1.14-5.42,1.71c-1.79-1.2-7.92-6.85-11.13-7.71c0.66-0.9-0.02-0.3,1.23-0.77
	c2.26-0.84,3.38-0.08,6.95,1.72C100.48,12.71,101.36,13.29,102.43,13.54z M51.63,20.1c-2.93,0-6.17-1.14-8.28-1.14
	c1.06-1.58,9.45-7.25,11.04-7.8c0.93-0.32,3.59,0.63,5.23,0.67c-0.02,0.02-4.38,4.08-5.95,6.03C53.4,18.19,51.86,20.1,51.63,20.1z
	 M71.89,6.69c2.09,0,2.02-0.28,3.33,2.37c0.55,1.11,0.98,2.04,1.52,3.05h-8.28C68.75,10.91,70.7,6.69,71.89,6.69z M85.31,11.83
	c4.47,0,3.66-1.69,7.59,0.69c0.77,0.46,1.12,0.75,1.92,1.22c2.14,1.26,3.69,2.58,5.45,3.96c0.84,0.66,1.02,0.7,1.59,1.55
	c-2.75,0-5.55,1.14-8.56,1.14C91.73,18.04,87.35,13.6,85.31,11.83z M77.32,12.4c6.57,0,6.82-1.36,9.78,1.64
	c1.18,1.19,5.2,5.01,5.63,6.64c-4.55,0-6.93,0.57-12.56,0.57L77.32,12.4z M21.66,30.09l-0.48-0.38c-0.66-0.6-0.74-0.71-0.95-1.62
	c0.84-1.25,2.23-2.37,3.35-3.5c2.39-2.39,4.57-4.31,7.43-6.26c1.64-1.12,2.52-1.84,4.34-2.8c0.28,1.04,0.3,0.6,0.86,1.43
	c-2.38,1.6-9.5,7.28-11.17,9.38L21.66,30.09z M29.66,32.94c-1.99,0-6-1.82-7.42-2.57l5.05-5.51c2.92-2.41,3.74-3.92,8.41-7.01
	c2.09-1.39,2.93,0.81,6.52,1.11c-0.05,0.07-5.26,4.85-6.56,6.56L29.66,32.94z M42.5,35.51c-0.64-0.31-4.87-0.79-6.12-1.02
	c-2.25-0.41-4.1-0.82-6.16-1.27c1.8-2.69,7.63-10.07,10.68-12.44c0.79-0.62,1.18-1.08,1.88-1.55c2.57,0.21,5.75,1.36,8.56,1.43
	C49.31,23.71,43.24,32.33,42.5,35.51z M65.33,20.96l2.1-6.46c0.3-0.89,0.57-1.31,0.75-2.1h8.56c0.71,1.34,2.85,7.27,2.85,9.13
	C75.98,21.53,67.76,22.18,65.33,20.96z M20.19,27c-0.19-0.28,6.46-6.34,6.97-6.83c2.33-2.22,5.24-3.99,7.92-5.78
	c-0.14,1.26-1.05,1.26-3.71,3.14c-1.37,0.96-2.58,1.83-3.91,2.94c-1.8,1.52-5.77,5.01-6.94,6.76L20.19,27z M19.1,28.09
	c0.03-0.09,1.1-0.47,0.33-0.03C19.43,28.07,18.8,28.9,19.1,28.09z M17.91,29.57l0.96-0.84l0.27,0.18l-0.96,0.84L17.91,29.57z
	 M10.53,49.21c-1.42-0.12-1.86-1.29-1.87-2c-0.05-2.3,8.06-16.38,11.29-18.55c0.5,0.94,0.28,1.12,1.43,1.43
	c-0.28,1.04-3.69,5.12-4.55,6.58C14.78,40.12,11.45,45.27,10.53,49.21z M19.95,53.21c-2.15-0.18-7.23-2.15-9.13-3.42
	c0.59-2.54,3.24-7.67,4.73-10.11l4.44-6.69c0.73-0.97,1.1-1.24,1.67-2.32l3.6,1.54c1.18,0.41,3.21,0.89,4.11,1.32l-4.01,6.84
	c-0.46,0.8-0.86,1.39-1.32,2.39C22.49,46.12,20.84,49.94,19.95,53.21z M35.36,56.06c-3.23,0-14.06-2.54-15.13-2.57l2-5.42
	c1.49-3.41,2.97-6.76,4.9-9.94l2.8-4.62c1.65,0.77,9.82,2.08,12.27,2.28c0,0.01-4.31,10.54-5.43,14.84
	c-0.25,0.95-0.45,1.69-0.73,2.69C35.78,54.27,35.69,55.38,35.36,56.06z M6.25,70.9c-1.62-1.08-2.03-2.22-1.59-5.02
	C5,63.71,5,61.3,5.31,59.4c0.57-3.5,1.68-8.7,2.94-11.33c1.06,0.78,0.34,0.83,2,1.71c-1.1,2.3-2.25,6.89-2.84,9.72
	C6.67,63.07,6.25,66.59,6.25,70.9z M16.24,74.9c-2.29-0.05-7.81-2.44-9.7-3.71c0-6.14,2.04-16.76,4-20.83
	c0.89,0.21,1.27,0.5,2.01,0.86c1.61,0.78,5.37,2.24,7.12,2.28c-0.08,0.97-0.34,1.41-0.57,2.28l-1.75,7.67
	C16.76,66.98,16.24,70.68,16.24,74.9z M4.54,70.05c2.75,1.84,1.2,2.97,2.3,10.83c0.89,6.4,1.48,6.26,2.55,10.86
	c-1.09-0.8-1.58-3.07-2-4.56C5.86,81.63,4.54,76.23,4.54,70.05z M6.54,71.76c2.9,1.53,6.12,2.87,9.7,3.71
	c0,2.58,0.06,10.49,0.86,11.99c-0.98,0.65-4.23,4.81-4.85,5.99c-2.44-0.62-2.28-1.51-3.04-3.81C7.48,84.34,6.54,77.57,6.54,71.76z
	 M10.53,93.16c0.32,0.17,1.56,0.58,0.92,1.2C10.73,95.07,10.62,93.8,10.53,93.16z M9.39,92.31c0.66,0.76,1.19,2.19,1.43,3.14
	C10.16,94.56,9.49,93.45,9.39,92.31z M17.95,93.45l0.86,2.57c-0.8-0.39-1.41-0.58-2.28-0.29L17.95,93.45z M19.38,96.59
	c0.95,0.08,0.89,0.16,1.71,0.57c-0.77,0.41-0.45,0.38-0.86,1.14C19.54,97.37,19.8,97.46,19.38,96.59z M16.24,104.01
	c-1.18-0.74-2.51-2.97-2.85-4.57c3.67-5.48,2.93-3.2,5.71-3.14c0.25,2.99,1.45,1.38-0.69,4.16
	C17.76,101.3,16.27,102.99,16.24,104.01z M10.25,119.99c-3.94-2.64-2.35-10.02-0.85-13.41l2.71-5.27c0.79-0.89,0.06-0.32,0.99-0.73
	c0.02,0.69,0.36,1.11,0.91,1.94c1.93,2.91,1.67,1.38-0.91,6.61C11.84,111.68,10.25,116.22,10.25,119.99z M35.93,122.3h-0.29H35.93z
	 M35.36,121.99l0.09-0.08C35.44,121.91,35.34,121.96,35.36,121.99z M35.08,121.7l0.09-0.08C35.16,121.62,35.05,121.67,35.08,121.7z
	 M34.22,121.13c0.02,0.09,0.89,0.86,0.61,0.03C34.65,120.64,34.12,120.63,34.22,121.13z M33.94,120.84l0.08-0.08
	C34.02,120.77,33.91,120.82,33.94,120.84z M33.65,120.56l0.08-0.09C33.73,120.48,33.62,120.53,33.65,120.56z M33.37,120.27
	l0.09-0.08C33.45,120.19,33.34,120.25,33.37,120.27z M33.08,119.99l0.09-0.08C33.16,119.91,33.05,119.96,33.08,119.99z M32.79,119.7
	l0.09-0.08C32.87,119.62,32.77,119.67,32.79,119.7z M32.51,119.42l0.08-0.09C32.59,119.34,32.48,119.39,32.51,119.42z M32.22,119.13
	l0.09-0.08C32.3,119.05,32.2,119.1,32.22,119.13z M32.22,118.85c-0.28-1.05-1.2-1.75-2-2.28C30.51,117.62,31.42,118.31,32.22,118.85
	z M29.94,116.56l0.09-0.08C30.02,116.48,29.91,116.54,29.94,116.56z M29.66,116.28l0.08-0.09C29.74,116.2,29.63,116.25,29.66,116.28
	z M29.66,115.99c-0.27-1-0.11-0.64-0.86-1.14C29.07,115.85,28.91,115.49,29.66,115.99z M36.79,116.28h1.71v-0.29h-1.71V116.28z
	 M35.08,115.99h1.71v-0.29h-1.71V115.99z M33.65,115.71h1.43v-0.29h-1.43V115.71z M32.22,115.42h1.43v-0.29h-1.43V115.42z
	 M27.09,112.85c0,0.12,0.48,1.32,0.42,0.22C27.49,112.71,27.09,111.9,27.09,112.85z M26.52,112c0,0.12,0.48,1.32,0.42,0.22
	C26.91,111.86,26.52,111.04,26.52,112z M26.52,111.71c-0.21-0.8-0.57-1.29-1.14-1.71C25.64,111.12,25.69,111.16,26.52,111.71z
	 M25.37,110c-0.24-1.04-0.16-0.92-0.86-1.43C24.76,109.61,24.68,109.49,25.37,110z M24.52,108.57c-0.22-0.96-0.46-1.5-1.14-2
	C23.6,107.53,23.84,108.07,24.52,108.57z M23.09,106.29c0,0.73,0.45,0.05,0.17,0C23.26,106.29,23.09,105.49,23.09,106.29z
	 M22.81,105.72c0,0.73,0.45,0.05,0.17,0C22.97,105.72,22.81,104.92,22.81,105.72z M22.52,105.15c0,0.73,0.45,0.05,0.17,0
	C22.69,105.15,22.52,104.35,22.52,105.15z M38.79,116.28v0.29c0.35,0,0.81-0.02,1.15,0.02c1.16,0.14,0.89,0.42,1.6,0.36
	c1.11-0.1,0.77-0.25,0.97-0.38c-0.88,0-1.09,0.1-1.75-0.53c-0.04-0.04-0.1-0.13-0.13-0.16c-0.03-0.03-0.07-0.11-0.12-0.17
	C40.32,116.16,40.75,116.28,38.79,116.28z M40.21,115.42c0,0.73,0.45,0.05,0.17,0C40.38,115.42,40.21,114.63,40.21,115.42z
	 M39.93,114.85c0,0.73,0.45,0.05,0.17,0C40.1,114.85,39.93,114.05,39.93,114.85z M39.64,114.28c0,0.73,0.45,0.05,0.17,0
	C39.81,114.28,39.64,113.48,39.64,114.28z M39.36,113.71c0,0.73,0.45,0.05,0.17,0C39.53,113.71,39.36,112.91,39.36,113.71z
	 M39.07,113.14c0,0.73,0.45,0.05,0.17,0C39.24,113.14,39.07,112.34,39.07,113.14z M39.07,112.85c-0.08-1-0.06-0.84-0.57-1.43
	C38.59,112.42,38.56,112.27,39.07,112.85z M38.22,111.14c0,0.73,0.45,0.05,0.17,0C38.38,111.14,38.22,110.34,38.22,111.14z
	 M37.93,110.29c-0.1,0.54,0.36,1.01,0.18,0.18C38.11,110.45,38.12,109.29,37.93,110.29z M37.65,109.71c0,0.73,0.45,0.05,0.17,0
	C37.81,109.71,37.65,108.92,37.65,109.71z M37.36,108.86c-0.1,0.54,0.36,1.01,0.18,0.18C37.54,109.02,37.55,107.86,37.36,108.86z
	 M37.08,108c-0.1,0.54,0.36,1.01,0.18,0.18C37.25,108.16,37.26,107.01,37.08,108z M36.79,107.15c-0.1,0.54,0.36,1.01,0.18,0.18
	C36.97,107.31,36.98,106.15,36.79,107.15z M36.5,106.29c-0.1,0.54,0.36,1.01,0.18,0.18C36.68,106.45,36.69,105.29,36.5,106.29z
	 M36.22,105.43c-0.1,0.54,0.36,1.02,0.18,0.18C36.4,105.6,36.41,104.44,36.22,105.43z M35.93,105.15c0.34-0.53,0.32,0.64,0.24-0.57
	c-0.04-0.61-0.04-0.26-0.24-0.57V105.15z M100.15,31.94l0.14-0.14C100.23,31.64,100.35,31.17,100.15,31.94z M99.86,31.23
	c0,0.73,0.45,0.05,0.17,0C100.03,31.23,99.86,30.44,99.86,31.23z M99.58,30.66c0,0.73,0.45,0.05,0.17,0
	C99.74,30.66,99.58,29.87,99.58,30.66z M99.58,30.38c-0.22-0.96-0.46-1.5-1.14-2C98.66,29.34,98.9,29.88,99.58,30.38z M98.43,28.38
	c-0.24-1.04-0.16-0.92-0.86-1.43C97.82,27.99,97.74,27.87,98.43,28.38z M97.58,26.95c-0.26-1.1-2.63-4.6-3.42-5.14
	c0.27,1.01,1.01,1.8,1.6,2.68C96.31,25.34,96.89,26.45,97.58,26.95z M109.15,25.81l-0.16,0.15L109.15,25.81z M127.83,37.51
	l0.09-0.08C127.91,37.43,127.8,37.48,127.83,37.51z M127.54,36.94c0,0.73,0.45,0.05,0.17,0C127.71,36.94,127.54,36.14,127.54,36.94z
	 M127.26,36.65l0.09-0.08C127.34,36.58,127.23,36.63,127.26,36.65z M126.97,36.08c0,0.73,0.45,0.05,0.17,0
	C127.14,36.08,126.97,35.29,126.97,36.08z M126.69,35.8l0.08-0.08C126.77,35.72,126.66,35.77,126.69,35.8z M126.4,35.23
	c0,0.73,0.45,0.05,0.17,0C126.57,35.23,126.4,34.43,126.4,35.23z M126.12,34.94l0.09-0.09C126.2,34.86,126.09,34.91,126.12,34.94z
	 M125.83,34.66l0.09-0.09C125.91,34.58,125.8,34.63,125.83,34.66z M125.55,34.09c0,0.73,0.45,0.05,0.17,0
	C125.71,34.09,125.55,33.29,125.55,34.09z M125.26,33.8l0.08-0.09C125.34,33.72,125.23,33.77,125.26,33.8z M124.98,33.23
	c0,0.73,0.45,0.05,0.17,0C125.14,33.23,124.98,32.43,124.98,33.23z M124.69,32.94l0.09-0.08C124.77,32.87,124.66,32.92,124.69,32.94
	z M124.4,32.66l0.09-0.08C124.48,32.58,124.38,32.63,124.4,32.66z M124.12,32.37l0.09-0.09C124.2,32.29,124.09,32.35,124.12,32.37z
	 M123.83,31.8c0,0.73,0.45,0.05,0.17,0C124,31.8,123.83,31.01,123.83,31.8z M123.55,31.52l0.09-0.08
	C123.63,31.44,123.52,31.49,123.55,31.52z M123.26,31.23l0.09-0.08C123.34,31.15,123.23,31.2,123.26,31.23z M122.69,30.09
	c0.17,0.63,0.09,1.11,0.58,0.62C123.77,30.21,123.57,30.55,122.69,30.09z M122.41,30.09l0.09-0.09
	C122.49,30.01,122.38,30.06,122.41,30.09z M122.12,29.81l0.09-0.09C122.2,29.73,122.09,29.78,122.12,29.81z M121.84,29.52l0.09-0.09
	C121.92,29.44,121.81,29.49,121.84,29.52z M121.84,29.23c-0.26-0.98-0.97-1.5-1.71-2C120.39,28.22,121.1,28.74,121.84,29.23z
	 M119.84,27.24l0.09-0.08C119.92,27.16,119.81,27.21,119.84,27.24z M119.55,26.95l0.09-0.09C119.63,26.87,119.52,26.92,119.55,26.95
	z M119.27,26.67l0.08-0.08C119.35,26.59,119.24,26.64,119.27,26.67z M118.98,26.38l0.09-0.08C119.06,26.3,118.95,26.35,118.98,26.38
	z M118.7,26.1l0.09-0.09C118.78,26.02,118.67,26.07,118.7,26.1z M118.41,25.81l0.09-0.09C118.49,25.73,118.38,25.78,118.41,25.81z
	 M118.13,25.52l0.09-0.08C118.21,25.45,118.1,25.5,118.13,25.52z M117.84,25.24l0.09-0.09C117.92,25.16,117.81,25.21,117.84,25.24z
	 M117.56,24.95l0.08-0.09C117.63,24.87,117.53,24.93,117.56,24.95z M117.27,24.67l0.09-0.09C117.35,24.59,117.24,24.64,117.27,24.67
	z M116.98,24.38l0.09-0.09C117.06,24.3,116.96,24.36,116.98,24.38z M116.98,24.1c-0.54-0.8-1.23-1.72-2.28-2
	C115.24,22.9,115.93,23.82,116.98,24.1z M114.42,22.1l0.09-0.08C114.5,22.02,114.39,22.07,114.42,22.1z M114.42,21.81
	c-0.49-0.73-0.49-0.89-1.43-1.14C113.48,21.4,113.48,21.56,114.42,21.81z M112.7,20.67l0.09-0.09
	C112.78,20.59,112.68,20.64,112.7,20.67z M112.7,20.39c-0.5-0.75-0.14-0.59-1.14-0.86C112.06,20.28,111.71,20.12,112.7,20.39z
	 M111.56,19.53c-0.5-0.75-0.14-0.59-1.14-0.86C110.92,19.42,110.57,19.27,111.56,19.53z M110.42,18.68
	c-0.5-0.75-0.14-0.59-1.14-0.86C109.78,18.57,109.42,18.41,110.42,18.68z M113.27,17.53c-0.02-0.09-0.89-0.86-0.61-0.03
	C112.84,18.02,113.37,18.04,113.27,17.53z M113.27,17.82c0.5,0.75,0.14,0.59,1.14,0.86C113.92,17.93,114.27,18.09,113.27,17.82z
	 M114.42,18.68c0.5,0.75,0.14,0.59,1.14,0.86C115.06,18.78,115.41,18.94,114.42,18.68z M115.56,19.53c0.5,0.75,0.14,0.59,1.14,0.86
	C116.2,19.64,116.55,19.8,115.56,19.53z M116.98,20.39l-0.09,0.09C116.91,20.47,117.01,20.42,116.98,20.39z M116.98,20.67
	c0.49,0.73,0.49,0.89,1.43,1.14C117.92,21.09,117.92,20.92,116.98,20.67z M118.7,21.81l-0.09,0.09
	C118.62,21.89,118.73,21.84,118.7,21.81z M118.98,22.1l-0.09,0.09C118.9,22.18,119.01,22.13,118.98,22.1z M118.98,22.39l5.35,5.49
	c-0.27-1.35-1.54-2.11-2.43-2.99C121.02,24,120.26,22.73,118.98,22.39z M123.83,30.09l0.09,0.08
	C123.91,30.17,123.86,30.06,123.83,30.09z M124.12,29.81c-0.03,0.03,0.09,0.04,0.09,0.09L124.12,29.81z M124.4,29.23
	c-0.3,0.3,0.45,1.08,0.15,0.32C124.55,29.55,124.88,28.76,124.4,29.23z M124.69,28.95c-0.03,0.03,0.09,0.04,0.09,0.08v0
	C124.77,29.03,124.72,28.92,124.69,28.95z M126.12,29.52c0-0.12-0.48-1.32-0.42-0.22C125.72,29.66,126.12,30.47,126.12,29.52z
	 M126.4,29.81l-0.09,0.09C126.32,29.89,126.43,29.83,126.4,29.81z M126.69,30.09l-0.09,0.08C126.61,30.17,126.72,30.12,126.69,30.09
	z M127.26,30.95c0-0.12-0.48-1.32-0.42-0.22C126.86,31.09,127.26,31.9,127.26,30.95z M127.54,31.23l-0.08,0.09
	C127.46,31.31,127.57,31.26,127.54,31.23z M127.83,31.52l-0.09,0.09C127.75,31.6,127.86,31.55,127.83,31.52z M128.11,32.09
	c0-0.73-0.45-0.05-0.17,0C127.95,32.09,128.11,32.89,128.11,32.09z M128.4,32.37l-0.09,0.09C128.32,32.45,128.43,32.4,128.4,32.37z
	 M128.69,32.66l-0.09,0.09C128.61,32.74,128.71,32.69,128.69,32.66z M128.97,33.23c0-0.73-0.45-0.05-0.17,0
	C128.8,33.23,128.97,34.03,128.97,33.23z M129.26,33.52l-0.08,0.08C129.18,33.6,129.28,33.54,129.26,33.52z M129.26,33.8
	c-0.03,0.03,0.09,0.04,0.09,0.09L129.26,33.8z M129.83,34.37l-0.09,0.09C129.75,34.45,129.86,34.4,129.83,34.37z M129.83,34.66
	c-0.03,0.03,0.09,0.04,0.09,0.09C129.91,34.74,129.86,34.63,129.83,34.66z M130.4,35.23l-0.09,0.08
	C130.32,35.31,130.43,35.26,130.4,35.23z M130.4,35.51c-0.03,0.03,0.09,0.05,0.09,0.09L130.4,35.51z M130.68,35.51l0.09-0.09
	C130.76,35.43,130.65,35.49,130.68,35.51z M130.4,34.94c0,0.73,0.45,0.05,0.17,0C130.56,34.94,130.4,34.15,130.4,34.94z
	 M130.11,34.66l0.09-0.09C130.19,34.58,130.08,34.63,130.11,34.66z M129.83,34.09c0,0.73,0.45,0.05,0.17,0
	C129.99,34.09,129.83,33.29,129.83,34.09z M129.54,33.8l0.09-0.09C129.62,33.72,129.51,33.77,129.54,33.8z M129.26,33.23
	c0,0.73,0.45,0.05,0.17,0C129.42,33.23,129.26,32.43,129.26,33.23z M128.97,32.94l0.09-0.08C129.05,32.87,128.94,32.92,128.97,32.94
	z M128.69,32.37c0,0.73,0.45,0.05,0.17,0C128.85,32.37,128.69,31.58,128.69,32.37z M128.4,32.09l0.08-0.09
	C128.48,32.01,128.37,32.06,128.4,32.09z M128.11,31.8l0.09-0.09C128.19,31.72,128.09,31.77,128.11,31.8z M127.83,31.23
	c0,0.73,0.45,0.05,0.17,0C128,31.23,127.83,30.44,127.83,31.23z M127.54,30.95l0.09-0.08C127.62,30.87,127.52,30.92,127.54,30.95z
	 M126.97,30.09c0,0.12,0.48,1.32,0.42,0.22C127.37,29.95,126.97,29.14,126.97,30.09z M126.69,29.81l0.08-0.09
	C126.77,29.73,126.66,29.78,126.69,29.81z M126.4,29.52l0.09-0.09C126.48,29.44,126.37,29.49,126.4,29.52z M126.12,28.95
	c0,0.73,0.45,0.05,0.17,0C126.28,28.95,126.12,28.15,126.12,28.95z M125.83,28.66l0.09-0.09C125.91,28.58,125.8,28.64,125.83,28.66z
	 M125.55,28.38l0.09-0.09C125.63,28.3,125.52,28.35,125.55,28.38z M124.4,27.81c0.13,0.19,0.21,0.41,0.47,0.67
	c0.44,0.44,0.02,0.23,0.67,0.47C125.05,27.87,126.02,27.23,124.4,27.81z M124.4,26.95c0,0.12,0.48,1.32,0.42,0.22
	C124.8,26.81,124.4,26,124.4,26.95z M124.12,26.67l0.09-0.08C124.2,26.59,124.09,26.64,124.12,26.67z M123.83,26.38l0.09-0.08
	C123.91,26.3,123.81,26.35,123.83,26.38z M123.55,26.1l0.12-0.12c0,0-0.03,0.03-0.03,0.03C123.63,26.02,123.52,26.07,123.55,26.1z
	 M123.26,25.81l0.09-0.09C123.34,25.73,123.23,25.78,123.26,25.81z M123.19,25.59c-0.21-1.13-0.99-1.56-1.71-2.28
	c-0.72-0.72-1.15-1.5-2.21-1.78L123.19,25.59z M118.98,21.53l0.09-0.08C119.06,21.45,118.95,21.5,118.98,21.53z M118.7,21.24
	l0.09-0.09C118.78,21.16,118.67,21.22,118.7,21.24z M118.41,20.96l0.09-0.09C118.49,20.88,118.38,20.93,118.41,20.96z M118.41,20.67
	c-0.48-0.71-0.78-1.18-1.71-1.43C117.18,19.96,117.48,20.42,118.41,20.67z M116.41,19.25l0.09-0.09
	C116.49,19.17,116.39,19.22,116.41,19.25z M116.41,18.96c-0.5-0.75-0.14-0.59-1.14-0.86C115.77,18.85,115.42,18.69,116.41,18.96z
	 M115.27,18.1c-0.5-0.75-0.14-0.59-1.14-0.86C114.63,18,114.28,17.84,115.27,18.1z M114.13,17.25c-0.5-0.75-0.14-0.59-1.14-0.86
	C113.49,17.14,113.13,16.98,114.13,17.25z M34.49,122.56l-0.26,0.24C34.76,123.01,34.69,123.11,34.49,122.56z M33.65,122.56
	c0.3,0.3,1.08-0.45,0.32-0.15C33.96,122.41,33.17,122.08,33.65,122.56z M33.37,122.27l0.09-0.09
	C33.45,122.19,33.34,122.24,33.37,122.27z M32.79,121.99c0.3,0.3,1.08-0.45,0.32-0.15C33.11,121.84,32.32,121.51,32.79,121.99z
	 M32.51,121.7l0.08-0.08C32.59,121.62,32.48,121.67,32.51,121.7z M31.94,121.42c0.3,0.3,1.08-0.45,0.32-0.15
	C32.25,121.27,31.46,120.94,31.94,121.42z M31.65,121.13l0.09-0.09C31.73,121.05,31.63,121.1,31.65,121.13z M30.8,120.56
	c0.02,0.09,0.89,0.86,0.61,0.03C31.23,120.07,30.7,120.06,30.8,120.56z M30.51,120.27l0.09-0.08
	C30.59,120.19,30.48,120.25,30.51,120.27z M29.66,119.7c0.02,0.09,0.89,0.86,0.61,0.03C30.09,119.22,29.56,119.2,29.66,119.7z
	 M29.37,119.42l0.09-0.09C29.45,119.34,29.34,119.39,29.37,119.42z M29.37,119.13c-0.5-0.75-0.14-0.59-1.14-0.86
	C28.73,119.02,28.37,118.87,29.37,119.13z M27.94,118.28l0.08-0.09C28.02,118.2,27.91,118.25,27.94,118.28z M27.66,117.99l0.08-0.09
	C27.74,117.91,27.63,117.96,27.66,117.99z M27.66,117.71c-0.49-0.73-0.49-0.89-1.43-1.14C26.72,117.29,26.72,117.45,27.66,117.71z
	 M25.95,116.56l0.08-0.08C26.03,116.48,25.92,116.54,25.95,116.56z M25.66,116.28l0.09-0.09C25.74,116.2,25.63,116.25,25.66,116.28z
	 M25.37,115.99l0.09-0.08C25.45,115.91,25.35,115.96,25.37,115.99z M33.65,91.69c-0.41,0-0.29-0.09-0.29,0.33
	c0.06,1.86,0.76,5.16,1.15,6.85c-1.33,0-2.52-0.23-3.84-0.45c-1.49-0.24-2.35-0.53-3.58-0.41c0.7-1.71,1-1.03,1.65-2.28l0-6.56
	c-1.82,1.11-6.55,6.26-7.07,7.42l-2.27-0.33c-1.1-4.24-1.56-2.49,3.37-7.73c0.71-0.75,1.93-1.56,2.25-2.21l0-6.85l-6.73,6.64
	c-1.34,1.65-0.96,0.21-0.98,0.29l-0.53-5.18c-0.19-1.81-0.24-3.54-0.24-5.75c1.06,0.51,3.59,0.92,5.07,1.21l5.01,0.98
	c0.05,0.02,0.14,0.04,0.2,0.08l0.58-0.56c-1.89,0-3.86-0.51-5.46-0.83l-5.4-1.17c0-4.97,1.09-11.78,2.28-16.55
	c0.34-1.37,0.89-3.73,1.43-4.85c2.48,0.58,4.8,1.09,7.54,1.59l5.95,0.91c2.48,0.3,1.44-0.71,0.08,8.5l-1.02,8.35l0.54-0.52
	c0.11-2.79,0.49-5.68,0.92-8.24c0.21-1.25,0.39-2.48,0.65-3.91c0.24-1.31,0.64-2.63,0.74-3.83c3.16,0,11.32,1.43,15.41,1.43
	l-0.57-0.51l-14.56-1.2c0.03-1.31,0.87-4.23,1.26-5.59c0.29-1.02,0.54-1.57,0.84-2.58c0.31-1.05,0.44-1.69,0.79-2.63
	c1.19-3.14,2.44-6.87,3.96-9.74l9.05,0.94c2.75,0.36,6.26,0.49,9.5,0.49c-0.25,3.02-1.63,9.82-1.97,14.01
	c-0.1,1.23-0.12,4.01-0.54,4.83l0.51,0.27c0-2.91,1.83-17.56,2.57-19.1c3.37,0.79,11.21,0.29,15.38,0.29l-0.25-0.22L61.9,36.94
	c0-1.59,1.43-8.46,1.92-9.99l-0.49-0.25l-2,10.24c-1.95,0-3.05-0.21-4.57-0.29l-9.08-0.62c-1.22-0.13-3.29-0.52-4.61-0.52
	c0.67-2.88,4.41-8.48,6.34-11.36c0.86-1.29,1.72-2.3,2.51-3.48c1.05,0.24,4.5,0.63,5.71,0.48l0.46-0.2c-1.78,0-3.97-0.57-5.88-0.57
	l7.99-8.56c1.78,0.41,5.48,0.57,7.71,0.57c-1.51,2.85-2.09,6.4-3.05,8.56l1.63,0.77l13.41,0.09c0.39,0.8,1.71,6.43,1.71,7.64
	l0.57,0.23c-0.24-2.38-1.66-5.59-1.71-7.88l10.65-0.79c2.25-0.33,1.89,0.01,3.05,0.79l-0.32-1.13c1.91-0.01,3.17-0.34,4.85-0.62
	c2.81-0.48,3.37-1.01,4.55,0.09c1.68,1.56,4.04,4.51,5.76,5.66c-0.46-1.73-4.47-4.29-5.99-6.56l4.84-1.72
	c1.24-0.38-0.18-0.14,1.44,0.29c-0.87-1.29-0.37-0.59,0.57-2c0.87,0.46,1.69,1.19,2.57,1.43c-1.08-1.62-1.48-0.5-2.57-2.57
	c1.32,0.35,1.82,1.36,3.14,1.71c-0.86-1.29-6.11-4.19-7.99-5.1l-1.14-0.61c-0.52-0.28-0.93-0.47-1.52-0.77
	c-3.74-1.87-8.05-3.46-12.56-4.55c-21.11-5.1-43.5-1.15-60.45,12.41C17.17,27.51,9.53,39.21,5.74,54.4
	c-3.28,13.14-1.5,27.57,3.82,39.73c0.62,1.43,0.88,1.73,0.08,2.98c-3.45,5.35-6.79,13.02-4.76,19.68c0.75,2.46,1.74,3.45,3.43,5.13
	c0.48,0.48,0.55,0.56,1.08,0.92c3.22,2.22,1.21,3.85,5.83,7.29c0.69,0.51,0.75,0.38,1.31,1.27c-2.02-0.78-8.63,0.49-9.99,1.14
	c0.82,1.11,3.48,1.3,4.87,1.4l18.24,0.88l12.44-0.41c2-0.3,9.71-0.16,10.97-1.88c-3.12-1.5-9.34-1.3-10.22-1.49
	c-0.67-0.15-0.23,0.02-0.63-0.25c-6.7,1.89-5.01,1.29-10.69,2.18c-1.52,0.24-2.95,0.05-4.51,0.29c0-1.63,0.33-1.22-0.56-1.53
	c1.1-0.62,4.05-0.17,6.7-0.5c1.04-0.13,1.43,0.1,2.31-0.42c-2.12,0-3.91-0.28-6.38-0.29c-3.94-0.02-6.57,1.35-11.31-1.82
	c-1.98-1.32-2.01-1.75-3.25-3.6l6.21,0.86l0-2c-2.27-0.06-5.52-0.9-7.06-1.71c0-3.14,0.58-5.36,1.46-7.67
	c0.56-1.48,2.18-5.04,3.39-6.03c0.58,0.86,0.72,1.15,1.5,1.93c1.02,1.02,3.92,4.82,5.35,5.21l-3.19-3.76l2.29,1.23
	c0.81,0.29,1.68,0.53,2.58,0.85c1.65,0.58,3.27,1.11,5.16,1.11l-7.67-2.32c-0.89-0.34-2.63-1.14-3.39-1.75
	c-4-3.25-1.91-3.75,0.5-7.34l0.74,0.98c0.02,0.03,0.07,0.11,0.11,0.16c-0.17-2.02-1.08-0.75,0.97-3.31
	c3.49-4.36,3.04-3.49,7.39-2.77c4,0.66,3.59-0.05,4.2,2.65c0.2,0.9,0.34,1.83,0.85,2.57c-0.04-1.77-0.82-2.8-0.86-4.57
	c1.43,0,2.2,0.29,4,0.29v-0.29c-1.81,0-2.38-0.29-4.28-0.29C34.74,96.94,33.83,94.04,33.65,91.69z"/>
<path class="st1" d="M33.34,72.61l-0.54,0.52c-0.34,0.26-0.33,0.3-0.61,0.53l-1.95,1.51c-1.49,1.14-1.83,1.74-2.84,1.99l-0.58,0.56
	c-0.49,0.75-1.01,1.15-1.79,1.72l0,6.85l7.79-6.28v5.42l-1.05,0.89c-1.32,1.08-1.61,1.11-3.01,2.82l0,6.56
	c0.57-0.33,1.73-1.28,2.29-1.78c0.84-0.74,1.29-1.65,2.34-1.93c0-0.43-0.11-0.33,0.29-0.33c3.03-3.15,7.98-6.35,11.49-9l4.24-2.65
	l0.54-0.25c0.5-0.74,0.81-0.74,1.66-1.23c0.74-0.44,1.21-0.72,1.96-1.18c0.98-0.59,3.11-1.98,4.19-2.19l0.47-0.28l0.84-0.59
	c0.32-0.2,0.55-0.34,0.87-0.56c-0.65-1.23-1.11-2.76-1.71-4.06L58,69.47c-1.96,0.14-4.4,1.74-5.81,2.55L41.98,78.4
	c-1.17,0.83-1.03,0.68-3.16,0.47c-1.1-0.11-2.71-0.31-3.74-0.55c2.07-2.51,16.08-10.22,17.18-11.07c0.36-0.28,1.68-1.95,1.94-2.34
	c-4.47-2.99-0.77-4.82-15.66,4.3c-0.8,0.49-1.65,1.16-2.52,1.75C35.21,71.52,34.14,72.41,33.34,72.61 M33.36,84.89
	c-0.59-1.52-0.28-3.7-0.28-5.42c1.14-0.31,0.48-0.38,1.3-0.61l3.87,0.28c1.58,0.14,1.07-0.33,1.97,0.62
	c-1.17,0.53-3.19,2.24-4.3,3.1l-1.74,1.4C33.86,84.55,34.4,84.41,33.36,84.89z"/>
<path class="st1" d="M35.47,130.83c-0.88,0.52-1.27,0.29-2.31,0.42c-2.66,0.33-5.6-0.12-6.7,0.5c0.88,0.31,0.56-0.11,0.56,1.53
	c1.55-0.24,2.99-0.05,4.51-0.29c5.68-0.88,3.98-0.29,10.69-2.18l5.83-1.86c0.89-0.36,1.15-0.49,2.05-0.8
	c1.05-0.36,6.62-2.47,7.24-3.32c-1.34,0.03-3.86,1.26-5.1,1.75l-5.29,1.84c-1.93,0.54-3.42,0.99-5.43,1.43
	C39.74,130.25,37.34,130.83,35.47,130.83"/>
<path class="st1" d="M44.5,122.27l0.09-0.09C44.58,122.19,44.47,122.24,44.5,122.27 M44.21,121.99l0.09-0.08
	C44.29,121.91,44.18,121.96,44.21,121.99z M43.92,121.42c0,0.71,0.46,0.07,0.18,0C44.1,121.41,43.92,120.61,43.92,121.42z
	 M35.93,122.3h-0.29c0,0.43-0.67,0.26-1.16,0.26c0.21,0.55,0.28,0.45-0.26,0.24c-2.17,0.2-3.82,0.73-6.23,0.91
	c-1.21,0.09-1.81,0.29-3.42,0.28c-1.28,0-2.56,0-3.83,0l0,2c1.15,0,1.18-0.12,1.89-0.22c1.37-0.21,2.58,0.14,6.02-0.56l7.06-1.5
	l0.24-0.21c0.9-0.18,0.52-0.05,1.14-0.37h0.29c1.82-0.84,5.4-1.68,6.62-2.22c0.06-0.03,0.13-0.07,0.19-0.1l0.8-0.35
	c1.04-0.48,0.34,0.1,0.96-0.75l-1.97,0.31c-0.48,0.13-0.2,0.02-0.52,0.1C42.5,120.34,39.33,121.88,35.93,122.3z M42.78,119.99
	l0.09-0.08C42.86,119.91,42.75,119.96,42.78,119.99z M42.5,119.42c0,0.71,0.46,0.07,0.18,0C42.67,119.42,42.5,118.61,42.5,119.42z
	 M42.21,119.13l0.09-0.08C42.29,119.05,42.18,119.1,42.21,119.13z"/>
<path class="st1" d="M49.92,79.79l-0.54,0.25c1.44,0.03,0.74,0.31,3.96,0.28c1.9-0.01,2.46,0.29,4.28,0.29l0.29-0.29
	c0-2.18,0.29-3.18,0.29-5.42l-0.47,0.28l-0.11,5.14c-1.36-0.32-1.98-0.29-3.7-0.28C52.1,80.05,51.5,79.71,49.92,79.79"/>
<rect x="65.9" y="80.6" class="st1" width="15.7" height="0.29"/>
<path class="st1" d="M120.41,43.22c0,0.71,0.46,0.07,0.18,0C120.58,43.22,120.41,42.41,120.41,43.22 M120.12,42.65
	c0,0.71,0.46,0.07,0.18,0C120.3,42.65,120.12,41.84,120.12,42.65z M119.84,42.08c0,0.71,0.46,0.07,0.18,0
	C120.01,42.08,119.84,41.27,119.84,42.08z M119.55,41.51c0,0.71,0.46,0.07,0.18,0C119.73,41.51,119.55,40.7,119.55,41.51z
	 M119.27,40.94c0,0.71,0.46,0.07,0.18,0C119.44,40.93,119.27,40.13,119.27,40.94z M118.98,40.37c0,0.71,0.46,0.07,0.18,0
	C119.16,40.36,118.98,39.56,118.98,40.37z M118.7,40.08l0.09-0.08C118.78,40,118.67,40.05,118.7,40.08z M118.41,39.51
	c0,0.71,0.46,0.07,0.18,0C118.58,39.51,118.41,38.7,118.41,39.51z M118.13,38.94c0,0.71,0.46,0.07,0.18,0
	C118.3,38.94,118.13,38.13,118.13,38.94z M117.84,38.37c0,0.71,0.46,0.07,0.18,0C118.01,38.37,117.84,37.56,117.84,38.37z
	 M117.84,38.08c-0.2-0.83,0.04-0.41-0.57-0.86C117.46,38.01,117.15,37.67,117.84,38.08z M116.98,36.94c0,0.71,0.46,0.07,0.18,0
	C117.16,36.94,116.98,36.13,116.98,36.94z M116.98,36.65c-0.2-0.83,0.04-0.41-0.57-0.86C116.6,36.58,116.3,36.24,116.98,36.65z
	 M116.13,35.51c0,0.71,0.46,0.07,0.18,0C116.3,35.51,116.13,34.7,116.13,35.51z M115.84,35.23l0.08-0.09
	C115.92,35.15,115.81,35.2,115.84,35.23z M115.56,34.66c0,0.71,0.46,0.07,0.18,0C115.73,34.66,115.56,33.85,115.56,34.66z
	 M116.7,33.52v-0.29h-0.86v0.29H116.7z M115.56,34.37c0.2-0.76-0.02-0.23,0.29-0.86c-0.88-0.08-0.54,0-1.14-0.29
	C114.97,34.23,114.81,33.87,115.56,34.37z M114.42,32.94c0,0.71,0.46,0.07,0.18,0C114.59,32.94,114.42,32.14,114.42,32.94z
	 M114.13,32.66l0.09-0.08C114.21,32.58,114.1,32.63,114.13,32.66z M113.56,31.52c0.2,0.81-0.04,0.43,0.57,0.86
	C113.93,31.54,114.17,31.96,113.56,31.52z"/>
<path class="st1" d="M35.7,123.7l0.24-0.21L35.7,123.7z M36.5,123.7c-0.29-0.29-1.03,0.41-0.33,0.15
	C36.18,123.85,36.98,124.18,36.5,123.7z M36.79,123.98l-0.09,0.09C36.71,124.06,36.82,124.01,36.79,123.98z M37.36,124.27
	c-0.29-0.29-1.03,0.41-0.33,0.15C37.04,124.42,37.84,124.75,37.36,124.27z M39.64,125.7l0.08,0.09
	C39.72,125.78,39.67,125.67,39.64,125.7z M41.36,126.55l0.08,0.08C41.44,126.63,41.38,126.52,41.36,126.55z M41.64,126.55l0.08-0.09
	C41.72,126.47,41.61,126.52,41.64,126.55z M41.64,126.27c-0.34-0.9,0.62-0.41-0.86-0.57L41.64,126.27z M37.36,124.55
	c1.12,0.97,1.78,1,3.42,1.14c-1.06-0.92-1.14-0.64-1.54-0.69C38.26,124.89,38.56,124.65,37.36,124.55z M39.07,124.84l0.08-0.08
	C39.15,124.76,39.05,124.81,39.07,124.84z M38.5,124.55c0.29,0.29,1.03-0.41,0.33-0.15C38.83,124.4,38.02,124.08,38.5,124.55z
	 M38.22,124.27l0.09-0.08C38.3,124.19,38.19,124.24,38.22,124.27z M37.93,123.98l0.08-0.08C38.01,123.9,37.9,123.96,37.93,123.98z
	 M37.36,123.7c0.29,0.29,1.03-0.41,0.33-0.15C37.69,123.55,36.88,123.22,37.36,123.7z M37.36,123.12h-0.29H37.36z"/>
<path class="st1" d="M55.06,131.97c1.55,0,2.38,0.57,4.28,0.57v-0.29c-1,0-1.31-0.2-2.11-0.48c-1.41-0.48-0.56-0.09-2.17-0.09
	V131.97z M53.91,131.69h1.14v-0.29h-1.14V131.69z"/>
<rect x="86.45" y="69.19" class="st1" width="0.29" height="7.13"/>
<rect x="57.91" y="91.45" class="st1" width="0.29" height="5.71"/>
<path class="st1" d="M134.11,42.08c0,0.71,0.46,0.07,0.18,0C134.28,42.08,134.11,41.27,134.11,42.08 M133.82,41.51
	c0,0.71,0.46,0.07,0.18,0C134,41.51,133.82,40.7,133.82,41.51z M133.54,40.94c0,0.71,0.46,0.07,0.18,0
	C133.71,40.93,133.54,40.13,133.54,40.94z M133.54,40.65c-0.1-1.21,0.01-1.11-0.86-1.43c0.24,0.9-0.08,0.17,0.33,0.81l0.39,0.47
	C133.43,40.53,133.49,40.6,133.54,40.65z M132.68,39.22c-0.1-1.21,0.01-1.11-0.86-1.43l0.72,1.28
	C132.57,39.11,132.64,39.17,132.68,39.22z M131.54,37.51c-0.03,0.03,0.08,0.04,0.09,0.09L131.54,37.51z M131.82,37.51l0.09-0.08
	C131.9,37.43,131.8,37.48,131.82,37.51z"/>
<rect x="86.16" y="63.48" class="st1" width="0.29" height="4.57"/>
<rect x="59.05" y="101.15" class="st1" width="4" height="0.29"/>
<rect x="53.34" y="100.87" class="st1" width="4" height="0.29"/>
<path class="st1" d="M58.19,101.44c0.94-0.31,0.38,0.05,0.31-1.12c-0.05-0.75-0.02-1.55-0.02-2.31h-0.29V101.44z"/>
<path class="st1" d="M85.59,58.63h0.57c-0.27-1.17-0.29-1.34-0.29-2.85h-0.29V58.63z"/>
<path class="st1" d="M57.91,67.77l0.09,1.7l0.2,0.22c0.44-0.8,0.29-1,0.29-2.17L57.91,67.77z"/>
<rect x="85.88" y="59.2" class="st1" width="0.29" height="3.42"/>
<rect x="48.78" y="100.58" class="st1" width="3.42" height="0.29"/>
<rect x="45.07" y="100.3" class="st1" width="3.14" height="0.29"/>
<path class="st1" d="M42.5,127.12l0.09,0.08C42.58,127.2,42.53,127.09,42.5,127.12 M45.07,128.55c0.29,0.29,1.03-0.41,0.33-0.15
	C45.39,128.4,44.59,128.07,45.07,128.55z M44.5,128.26c0.29,0.29,1.03-0.41,0.33-0.15C44.82,128.11,44.02,127.79,44.5,128.26z
	 M44.5,127.98l-1.42-0.87c0.21,0.6-0.13,0.39,0.45,0.7C44.09,128.11,43.85,127.93,44.5,127.98z M42.78,127.12l0.09-0.09
	C42.86,127.04,42.75,127.09,42.78,127.12z"/>
<rect x="42.21" y="100.01" class="st1" width="2.57" height="0.29"/>
<rect x="39.36" y="99.73" class="st1" width="2.28" height="0.29"/>
<rect x="101.29" y="57.2" class="st1" width="2.28" height="0.29"/>
<rect x="86.45" y="80.32" class="st1" width="2.28" height="0.29"/>
<rect x="43.07" y="116.85" class="st1" width="2" height="0.29"/>
<rect x="58.48" y="102.29" class="st1" width="0.29" height="2"/>
<path class="st1" d="M119.27,32.37c-0.71,0-0.07,0.46,0,0.18C119.27,32.55,120.08,32.37,119.27,32.37 M119.55,32.09v0.29h0.86v-0.29
	H119.55z M120.41,32.09c0.29,0.29,1.03-0.41,0.33-0.15C120.73,31.94,119.93,31.61,120.41,32.09z"/>
<path class="st1" d="M116.98,32.94v0.29h0.86v-0.29H116.98z M117.84,32.94h0.86v-0.29h-0.86V32.94z"/>
<rect x="104.43" y="56.92" class="st1" width="1.71" height="0.29"/>
<rect x="45.35" y="117.13" class="st1" width="1.71" height="0.29"/>
<path class="st1" d="M107.28,50.07h0.29v-0.86h-0.29V50.07z M107,49.21h0.29v-0.86H107V49.21z"/>
<rect x="52.2" y="117.71" class="st1" width="1.43" height="0.29"/>
<rect x="86.45" y="88.6" class="st1" width="0.29" height="1.43"/>
<rect x="56.77" y="117.99" class="st1" width="1.43" height="0.29"/>
<rect x="48.78" y="117.42" class="st1" width="1.43" height="0.29"/>
<path class="st1" d="M121.84,46.36c0,0.71,0.46,0.07,0.18,0C122.01,46.36,121.84,45.55,121.84,46.36 M121.55,45.79
	c0,0.71,0.46,0.07,0.18,0C121.72,45.79,121.55,44.98,121.55,45.79z M121.27,45.22c0,0.71,0.46,0.07,0.18,0
	C121.44,45.22,121.27,44.41,121.27,45.22z"/>
<rect x="112.13" y="34.09" class="st1" width="1.14" height="0.29"/>
<rect x="58.77" y="106" class="st1" width="0.29" height="1.14"/>
<rect x="93.3" y="80.03" class="st1" width="1.14" height="0.29"/>
<rect x="110.71" y="34.37" class="st1" width="1.14" height="0.29"/>
<rect x="59.05" y="108.57" class="st1" width="0.29" height="1.14"/>
<rect x="113.56" y="33.8" class="st1" width="0.86" height="0.29"/>
<rect x="107.57" y="50.35" class="st1" width="0.29" height="0.86"/>
<rect x="108.99" y="56.06" class="st1" width="0.29" height="0.86"/>
<rect x="109.85" y="56.35" class="st1" width="0.86" height="0.29"/>
<rect x="107.57" y="56.63" class="st1" width="0.86" height="0.29"/>
<rect x="59.34" y="110.86" class="st1" width="0.29" height="0.86"/>
<rect x="59.62" y="112.85" class="st1" width="0.29" height="0.86"/>
<rect x="43.35" y="126.27" class="st1" width="0.86" height="0.29"/>
<rect x="108.42" y="53.49" class="st1" width="0.29" height="0.86"/>
<path class="st1" d="M40.5,126.55c0.29,0.29,1.03-0.41,0.33-0.15C40.82,126.4,40.02,126.07,40.5,126.55 M40.21,126.27l0.09-0.08
	C40.29,126.19,40.19,126.24,40.21,126.27z"/>
<path class="st1" d="M112.13,56.35c0.29,0.29,1.03-0.41,0.33-0.15C112.46,56.2,111.65,55.87,112.13,56.35"/>
<path class="st1" d="M114.13,56.06c0.29,0.29,1.03-0.41,0.33-0.15C114.45,55.91,113.65,55.58,114.13,56.06"/>
<path class="st1" d="M42.21,126.27c0.29,0.29,1.03-0.41,0.33-0.15C42.54,126.12,41.73,125.79,42.21,126.27"/>
<path class="st1" d="M46.49,127.12c0.29,0.29,1.03-0.41,0.33-0.15C46.82,126.97,46.01,126.64,46.49,127.12"/>
<path class="st1" d="M53.06,131.4c0.29,0.29,1.03-0.41,0.33-0.15C53.38,131.25,52.58,130.92,53.06,131.4"/>
<path class="st1" d="M130.68,36.08c-0.03,0.03,0.09,0.04,0.09,0.08L130.68,36.08z M131.25,35.8l-0.09,0.09
	C131.17,35.88,131.28,35.83,131.25,35.8z M131.54,36.37c0-0.71-0.46-0.07-0.18,0C131.37,36.37,131.54,37.18,131.54,36.37z
	 M131.82,36.94l-0.09-0.09C131.75,36.86,131.8,36.97,131.82,36.94z M131.25,37.23l0.09-0.09C131.33,37.15,131.23,37.2,131.25,37.23z
	 M131.25,36.65l-0.09,0.09C131.17,36.73,131.28,36.68,131.25,36.65z"/>
<path class="st1" d="M41.93,118.56l0.09-0.09C42.01,118.48,41.9,118.53,41.93,118.56 M41.64,117.99c0,0.71,0.46,0.07,0.18,0
	C41.82,117.99,41.64,117.18,41.64,117.99z M41.36,117.71l0.08-0.09C41.44,117.63,41.33,117.68,41.36,117.71z"/>
<path class="st1" d="M106.71,47.79c0,0.71,0.46,0.07,0.18,0C106.88,47.78,106.71,46.98,106.71,47.79"/>
<path class="st1" d="M106.43,46.93c0,0.71,0.46,0.07,0.18,0C106.6,46.93,106.43,46.12,106.43,46.93"/>
<path class="st1" d="M108.14,52.92c0,0.71,0.46,0.07,0.18,0C108.31,52.92,108.14,52.11,108.14,52.92"/>
<path class="st1" d="M122.41,47.79c0,0.71,0.46,0.07,0.18,0C122.58,47.78,122.41,46.98,122.41,47.79"/>
<path class="st1" d="M107.85,51.78c0,0.71,0.46,0.07,0.18,0C108.03,51.78,107.85,50.97,107.85,51.78"/>
<path class="st1" d="M108.71,55.21c0,0.71,0.46,0.07,0.18,0C108.88,55.2,108.71,54.4,108.71,55.21"/>
<path class="st1" d="M109.28,57.77c0,0.71,0.46,0.07,0.18,0C109.45,57.77,109.28,56.96,109.28,57.77"/>
<path class="st1" d="M109.56,59.2c0,0.71,0.46,0.07,0.18,0C109.74,59.2,109.56,58.39,109.56,59.2"/>
<path class="st1" d="M109.85,60.63c0,0.71,0.46,0.07,0.18,0C110.02,60.63,109.85,59.82,109.85,60.63"/>
<path class="st1" d="M110.14,62.34c0,0.71,0.46,0.07,0.18,0C110.31,62.34,110.14,61.53,110.14,62.34"/>
<path class="st1" d="M46.21,124.27l0.08-0.08C46.29,124.19,46.18,124.24,46.21,124.27 M45.92,123.98l0.08-0.08
	C46,123.9,45.89,123.96,45.92,123.98z M45.64,123.7l0.09-0.08C45.72,123.62,45.61,123.67,45.64,123.7z M45.35,123.41l0.09-0.09
	C45.43,123.33,45.32,123.38,45.35,123.41z M45.07,123.13l0.08-0.09C45.15,123.05,45.04,123.1,45.07,123.13z"/>
<path class="st1" d="M41.93,126.84c-0.03,0.03,0.09,0.04,0.09,0.08C42.01,126.92,41.96,126.81,41.93,126.84 M42.21,126.84l0.09-0.09
	C42.29,126.76,42.18,126.81,42.21,126.84z"/>
<path class="st1" d="M128.4,38.37l0.08-0.08C128.48,38.29,128.37,38.34,128.4,38.37 M128.11,38.08L128.2,38
	C128.19,38,128.09,38.05,128.11,38.08z"/>
<path class="st1" d="M129.26,39.79l0.09-0.09C129.34,39.71,129.23,39.77,129.26,39.79 M128.97,39.51l0.09-0.09
	C129.05,39.43,128.94,39.48,128.97,39.51z"/>
<path class="st1" d="M123.55,50.92l0.09-0.08C123.63,50.84,123.52,50.9,123.55,50.92"/>
<path class="st1" d="M45.07,126.84l0.08-0.09C45.15,126.76,45.04,126.81,45.07,126.84"/>
<path class="st1" d="M116.13,55.78l0.09-0.09C116.21,55.7,116.1,55.75,116.13,55.78"/>
<path class="st1" d="M122.12,47.21l0.09-0.09C122.2,47.13,122.09,47.19,122.12,47.21"/>
<path class="st1" d="M130.68,42.36l0.09-0.08C130.76,42.28,130.65,42.33,130.68,42.36"/>
<path class="st1" d="M123.83,51.78l0.09-0.09C123.91,51.7,123.81,51.75,123.83,51.78"/>
<path class="st1" d="M123.26,50.07l0.09-0.08C123.34,49.99,123.23,50.04,123.26,50.07"/>
<path class="st1" d="M122.69,48.64l0.09-0.09C122.77,48.56,122.66,48.61,122.69,48.64"/>
<path class="st1" d="M120.69,44.08l0.09-0.09C120.77,44,120.67,44.05,120.69,44.08"/>
<path class="st1" d="M48.49,127.41l0.09-0.08C48.57,127.33,48.46,127.38,48.49,127.41"/>
<path class="st1" d="M52.2,131.12l0.09-0.09C52.28,131.04,52.17,131.09,52.2,131.12"/>
<path class="st1" d="M51.35,130.83l0.09-0.08C51.42,130.75,51.32,130.8,51.35,130.83"/>
<path class="st1" d="M128.69,38.94l0.08-0.09C128.76,38.86,128.66,38.91,128.69,38.94"/>
<path class="st1" d="M117.84,55.49l0.09-0.08C117.92,55.41,117.81,55.46,117.84,55.49"/>
<path class="st1" d="M129.83,40.94l0.09-0.09C129.91,40.86,129.8,40.91,129.83,40.94"/>
<path class="st1" d="M121.27,31.8l0.09-0.09C121.34,31.72,121.24,31.77,121.27,31.8"/>
<path class="st1" d="M121.84,31.52l0.09-0.08C121.92,31.44,121.81,31.49,121.84,31.52"/>
<path class="st1" d="M122.98,49.5l0.09-0.08C123.06,49.42,122.95,49.47,122.98,49.5"/>
<path class="st1" d="M59.91,115.14l0.09-0.09C59.99,115.06,59.88,115.11,59.91,115.14"/>
<path class="st1" d="M110.42,64.34l0.09-0.09C110.5,64.26,110.39,64.31,110.42,64.34"/>
<path class="st1" d="M120.98,44.65l0.09-0.09C121.06,44.57,120.95,44.62,120.98,44.65"/>
<path class="st1" d="M122.41,31.23l0.09-0.08C122.49,31.15,122.38,31.2,122.41,31.23"/>
<path class="st1" d="M129.54,40.37l0.09-0.09C129.62,40.29,129.51,40.34,129.54,40.37"/>
<path class="st2" d="M247.15,82.08c2.42-2.09,5.34-3.14,8.77-3.14c3.41,0,6.32,1.05,8.73,3.14c2.42,2.09,3.63,4.62,3.63,7.59v33.03
	h-9.91v-8.58h-4.94v8.58h-9.91V89.67C243.52,86.7,244.74,84.17,247.15,82.08 M258.37,105.54V89.68c0-0.6-0.25-1.11-0.73-1.53
	c-0.48-0.42-1.06-0.62-1.72-0.62c-0.7,0-1.28,0.2-1.77,0.62c-0.48,0.42-0.72,0.93-0.72,1.53v15.86H258.37z M240.66,79.86v19.28
	c0,2.15-0.68,4.12-2.04,5.9c-1.31,1.73-3.08,3.03-5.28,3.89v13.78h-9.88v-13.72c-2.26-0.82-4.07-2.1-5.42-3.86
	c-1.4-1.82-2.11-3.82-2.11-5.99V79.86h9.91v19.28c0,0.59,0.24,1.1,0.72,1.52c0.48,0.42,1.06,0.63,1.73,0.63
	c0.7,0,1.27-0.21,1.76-0.63c0.48-0.42,0.73-0.93,0.73-1.52V79.86H240.66z M211.89,122.7h-9.91V79.86h9.91V122.7z M198.81,79.86
	v42.84h-9.88v-15.11l-4.97-10.06v25.16h-9.88V79.86h9.88v0.24l4.97,10.02V79.86H198.81z M170.22,122.7h-9.91V79.86h9.91V122.7z
	 M145.87,79c3.32,0.1,6.14,1.18,8.46,3.25c2.3,2.07,3.45,4.55,3.45,7.44v4.4h-9.88v-4.4c0-0.57-0.24-1.07-0.72-1.49
	c-0.48-0.42-1.07-0.63-1.77-0.63c-0.59,0-1.11,0.16-1.56,0.48c-0.06,0.04-0.12,0.09-0.16,0.15h-0.04c-0.05,0.04-0.09,0.09-0.14,0.14
	h-0.04c-0.05,0.06-0.08,0.11-0.11,0.15c0,0,0,0.01,0,0.03h-0.02c-0.05,0.06-0.08,0.11-0.11,0.15c0.02-0.02,0.02-0.01,0,0.03
	c-0.05,0.06-0.08,0.1-0.11,0.14c0,0-0.01,0.03-0.04,0.09l-0.04,0.12c0,0-0.01,0.04-0.04,0.12c-0.02,0.05-0.04,0.08-0.04,0.08
	c0,0.02-0.01,0.06-0.04,0.12c0,0.06,0,0.09,0,0.09c0,0.08,0,0.14,0,0.2v9.48c0,0.59,0.25,1.1,0.73,1.52
	c0.48,0.4,1.06,0.59,1.72,0.59l0.45,0.03c3.32,0.1,6.14,1.19,8.46,3.26c2.3,2.07,3.45,4.55,3.45,7.44c0,2.95-1.19,5.47-3.59,7.55
	c-2.42,2.09-5.34,3.14-8.77,3.14h-12.36v-8.57h12.36c0.7,0,1.28-0.21,1.77-0.63c0.48-0.42,0.72-0.92,0.72-1.49
	c0-0.6-0.24-1.11-0.72-1.53c-0.48-0.42-1.07-0.62-1.77-0.62h-0.48c-3.29-0.12-6.08-1.2-8.39-3.25c-2.3-2.07-3.46-4.54-3.49-7.42
	v-9.53c0.02-2.95,1.24-5.46,3.63-7.53c2.39-2.07,5.29-3.11,8.7-3.13H145.87z M129.2,122.7h-9.91V79.86h9.91V122.7z M115.97,99.28
	c-0.05,2.33-0.88,4.42-2.49,6.27c1.6,1.87,2.44,3.97,2.49,6.3v0.27c-0.05,2.91-1.27,5.4-3.66,7.47c-2.39,2.06-5.27,3.09-8.63,3.11
	H91.21V79.86h12.4c3.38,0,6.28,1.04,8.7,3.11c2.42,2.07,3.64,4.58,3.66,7.53V99V99.28z M101.13,101.27h2.49
	c0.66,0,1.24-0.2,1.72-0.62c0.48-0.42,0.73-0.93,0.73-1.53v-8.57c0-0.58-0.24-1.08-0.7-1.5c-0.48-0.42-1.06-0.62-1.72-0.62h-0.07
	h-2.45V101.27z M105.33,113.5c0.48-0.42,0.73-0.93,0.73-1.53c0-0.57-0.25-1.07-0.73-1.49c-0.48-0.42-1.06-0.63-1.72-0.63h-2.49v4.27
	h2.49C104.27,114.12,104.85,113.92,105.33,113.5z M66.7,82.08c2.42-2.09,5.34-3.14,8.77-3.14c3.41,0,6.32,1.05,8.73,3.14
	c2.42,2.09,3.63,4.62,3.63,7.59v33.03h-9.91v-8.58h-4.94v8.58h-9.91V89.67C63.07,86.7,64.29,84.17,66.7,82.08z M77.92,105.54V89.68
	c0-0.6-0.25-1.11-0.73-1.53c-0.48-0.42-1.06-0.62-1.72-0.62c-0.7,0-1.28,0.2-1.77,0.62c-0.48,0.42-0.72,0.93-0.72,1.53v15.86H77.92z
	"/>
</svg>
